# xmcd
#
# Track frame offsets:
# 150
# 19022
# 38426
# 55862
# 74941
# 95306
# 106686
# 125396
# 144837
# 167676
#
# Disc length: 2511 seconds
#
#
# Revision: 0
# Processed by: cddbd v1.5.1PL0 Copyright (c) Steve Scherf et al.
# Submitted via: FreeRIP 2.92 
#
DISCID=7a09cd0a
DTITLE=Michael Senn - I Can Only Imagine
DYEAR=2004
DGENRE=Gospel
TTITLE0=I Can Only Imagine
TTITLE1=One Of These Days
TTITLE2=God Of Wonders
TTITLE3=Mercy Came Running
TTITLE4=Praise The Lord
TTITLE5=Sail On
TTITLE6=One Thing I Know
TTITLE7=Saving The World
TTITLE8=You Are The Holy One
TTITLE9=Ride Of Life
EXTD=
EXTT0=
EXTT1=
EXTT2=
EXTT3=
EXTT4=
EXTT5=
EXTT6=
EXTT7=
EXTT8=
EXTT9=
PLAYORDER=
